<svg width="500" height="500" viewBox="0 0 500 500" fill="none" xmlns="http://www.w3.org/2000/svg">
<rect width="500" height="500" fill="black"/>
<g filter="url(#filter0_d_2_28)">
<rect x="90" y="160" width="320" height="180" rx="15" fill="url(#paint0_linear_2_28)" fill-opacity="0.2"/>
<rect x="92.5" y="162.5" width="315" height="175" rx="12.5" stroke="url(#paint1_angular_2_28)" stroke-width="5" stroke-linejoin="round"/>
</g>
<path d="M159.897 251.83V270.287C159.336 271.093 158.274 271.996 156.711 272.997C155.173 273.998 153.147 274.877 150.632 275.634C148.142 276.366 145.164 276.732 141.697 276.732C138.669 276.732 135.898 276.171 133.384 275.048C130.869 273.925 128.696 272.326 126.865 270.25C125.034 268.151 123.618 265.673 122.617 262.816C121.641 259.936 121.152 256.762 121.152 253.295V244.579C121.152 241.21 121.628 238.146 122.581 235.387C123.557 232.628 124.924 230.248 126.682 228.246C128.464 226.22 130.576 224.669 133.018 223.595C135.459 222.497 138.145 221.947 141.074 221.947C144.932 221.947 148.191 222.619 150.852 223.961C153.513 225.304 155.588 227.123 157.078 229.418C158.591 231.688 159.507 234.252 159.824 237.108H157.847C157.48 234.789 156.687 232.628 155.466 230.626C154.246 228.625 152.463 227.013 150.12 225.792C147.8 224.547 144.785 223.925 141.074 223.925C138.364 223.925 135.898 224.438 133.677 225.463C131.479 226.464 129.587 227.88 128 229.711C126.438 231.542 125.229 233.715 124.375 236.229C123.545 238.744 123.13 241.503 123.13 244.506V253.295C123.13 256.444 123.557 259.325 124.412 261.938C125.291 264.55 126.548 266.82 128.184 268.749C129.819 270.653 131.772 272.13 134.043 273.18C136.338 274.23 138.889 274.755 141.697 274.755C144.602 274.755 147.166 274.462 149.387 273.876C151.633 273.266 153.477 272.545 154.917 271.715C156.382 270.861 157.383 270.08 157.92 269.372V253.844H141.624V251.83H159.897ZM175.242 219.75V276H173.264V219.75H175.242ZM213.108 268.566V248.095C213.108 245.897 212.632 244.018 211.68 242.455C210.752 240.893 209.385 239.696 207.578 238.866C205.796 238.036 203.611 237.621 201.023 237.621C198.63 237.621 196.47 238.048 194.541 238.903C192.637 239.733 191.123 240.88 190 242.345C188.901 243.81 188.352 245.458 188.352 247.289L186.375 247.216C186.375 245.678 186.729 244.213 187.437 242.821C188.169 241.43 189.182 240.197 190.476 239.123C191.794 238.048 193.345 237.206 195.127 236.596C196.934 235.961 198.899 235.644 201.023 235.644C203.782 235.644 206.211 236.107 208.311 237.035C210.435 237.963 212.095 239.354 213.291 241.21C214.487 243.065 215.085 245.385 215.085 248.168V268.017C215.085 269.433 215.171 270.861 215.342 272.301C215.537 273.742 215.793 274.865 216.111 275.67V276H213.84C213.596 275.048 213.413 273.9 213.291 272.558C213.169 271.19 213.108 269.86 213.108 268.566ZM213.987 253.881L214.06 255.895H203.733C201.169 255.895 198.875 256.151 196.848 256.664C194.822 257.152 193.101 257.848 191.685 258.751C190.269 259.655 189.182 260.729 188.425 261.974C187.668 263.219 187.29 264.599 187.29 266.112C187.29 267.699 187.717 269.152 188.572 270.47C189.451 271.789 190.659 272.838 192.197 273.62C193.735 274.401 195.505 274.792 197.507 274.792C200.291 274.792 202.756 274.34 204.905 273.437C207.053 272.509 208.872 271.215 210.361 269.555C211.851 267.895 212.986 265.929 213.767 263.659L214.646 265.49C214.182 266.857 213.486 268.212 212.559 269.555C211.655 270.873 210.496 272.082 209.08 273.18C207.664 274.254 205.991 275.121 204.062 275.78C202.158 276.415 199.973 276.732 197.507 276.732C195.042 276.732 192.893 276.281 191.062 275.377C189.231 274.45 187.815 273.18 186.814 271.569C185.813 269.933 185.312 268.065 185.312 265.966C185.312 264.208 185.728 262.597 186.558 261.132C187.388 259.643 188.584 258.361 190.146 257.287C191.733 256.188 193.662 255.346 195.933 254.76C198.203 254.174 200.767 253.881 203.623 253.881H213.987ZM252.292 266.295C252.292 265.099 251.963 263.891 251.304 262.67C250.645 261.425 249.448 260.265 247.715 259.191C245.981 258.117 243.479 257.226 240.208 256.518C237.986 256.029 236.033 255.492 234.348 254.906C232.688 254.32 231.296 253.625 230.173 252.819C229.05 251.989 228.208 250.988 227.646 249.816C227.085 248.644 226.804 247.252 226.804 245.641C226.804 244.25 227.097 242.956 227.683 241.759C228.293 240.539 229.172 239.477 230.32 238.573C231.467 237.646 232.859 236.925 234.495 236.413C236.13 235.9 237.986 235.644 240.061 235.644C243.015 235.644 245.542 236.12 247.642 237.072C249.766 238.024 251.389 239.354 252.512 241.063C253.66 242.748 254.233 244.713 254.233 246.959H252.219C252.219 245.324 251.743 243.798 250.791 242.382C249.863 240.966 248.496 239.818 246.689 238.939C244.883 238.061 242.673 237.621 240.061 237.621C237.4 237.621 235.239 238.024 233.579 238.83C231.919 239.635 230.698 240.648 229.917 241.869C229.16 243.09 228.782 244.323 228.782 245.568C228.782 246.593 228.928 247.545 229.221 248.424C229.514 249.279 230.076 250.084 230.906 250.841C231.76 251.574 232.981 252.27 234.568 252.929C236.155 253.588 238.23 254.21 240.793 254.796C243.943 255.504 246.506 256.359 248.484 257.36C250.461 258.361 251.914 259.594 252.842 261.059C253.794 262.499 254.27 264.257 254.27 266.332C254.27 267.87 253.94 269.274 253.281 270.543C252.646 271.813 251.719 272.912 250.498 273.839C249.302 274.767 247.837 275.487 246.104 276C244.395 276.488 242.478 276.732 240.354 276.732C237.156 276.732 234.446 276.244 232.224 275.268C230.027 274.267 228.354 272.948 227.207 271.312C226.084 269.652 225.522 267.858 225.522 265.929H227.5C227.671 268.2 228.416 269.982 229.734 271.276C231.077 272.545 232.7 273.449 234.604 273.986C236.533 274.499 238.45 274.755 240.354 274.755C242.966 274.755 245.151 274.34 246.909 273.51C248.691 272.68 250.034 271.618 250.938 270.324C251.841 269.005 252.292 267.663 252.292 266.295ZM289.646 266.295C289.646 265.099 289.316 263.891 288.657 262.67C287.998 261.425 286.802 260.265 285.068 259.191C283.335 258.117 280.833 257.226 277.561 256.518C275.339 256.029 273.386 255.492 271.702 254.906C270.042 254.32 268.65 253.625 267.527 252.819C266.404 251.989 265.562 250.988 265 249.816C264.438 248.644 264.158 247.252 264.158 245.641C264.158 244.25 264.451 242.956 265.037 241.759C265.647 240.539 266.526 239.477 267.673 238.573C268.821 237.646 270.212 236.925 271.848 236.413C273.484 235.9 275.339 235.644 277.415 235.644C280.369 235.644 282.896 236.12 284.995 237.072C287.119 238.024 288.743 239.354 289.866 241.063C291.013 242.748 291.587 244.713 291.587 246.959H289.573C289.573 245.324 289.097 243.798 288.145 242.382C287.217 240.966 285.85 239.818 284.043 238.939C282.236 238.061 280.027 237.621 277.415 237.621C274.753 237.621 272.593 238.024 270.933 238.83C269.272 239.635 268.052 240.648 267.271 241.869C266.514 243.09 266.135 244.323 266.135 245.568C266.135 246.593 266.282 247.545 266.575 248.424C266.868 249.279 267.429 250.084 268.259 250.841C269.114 251.574 270.334 252.27 271.921 252.929C273.508 253.588 275.583 254.21 278.147 254.796C281.296 255.504 283.86 256.359 285.837 257.36C287.815 258.361 289.268 259.594 290.195 261.059C291.147 262.499 291.624 264.257 291.624 266.332C291.624 267.87 291.294 269.274 290.635 270.543C290 271.813 289.072 272.912 287.852 273.839C286.655 274.767 285.19 275.487 283.457 276C281.748 276.488 279.832 276.732 277.708 276.732C274.509 276.732 271.799 276.244 269.578 275.268C267.38 274.267 265.708 272.948 264.561 271.312C263.438 269.652 262.876 267.858 262.876 265.929H264.854C265.024 268.2 265.769 269.982 267.087 271.276C268.43 272.545 270.054 273.449 271.958 273.986C273.887 274.499 275.803 274.755 277.708 274.755C280.32 274.755 282.505 274.34 284.263 273.51C286.045 272.68 287.388 271.618 288.291 270.324C289.194 269.005 289.646 267.663 289.646 266.295ZM305.576 222.68V276H303.599V222.68H305.576ZM339.341 222.68L315.5 246.667L304.771 256.554L305.063 253.991L314.292 244.982L336.484 222.68H339.341ZM338.608 276L313.486 247.252L314.695 245.531L341.172 276H338.608ZM352.634 236.376V276H350.657V236.376H352.634ZM349.631 223.998C349.631 223.437 349.827 222.96 350.217 222.57C350.608 222.155 351.084 221.947 351.646 221.947C352.207 221.947 352.683 222.155 353.074 222.57C353.489 222.96 353.696 223.437 353.696 223.998C353.696 224.56 353.489 225.036 353.074 225.426C352.683 225.817 352.207 226.012 351.646 226.012C351.084 226.012 350.608 225.817 350.217 225.426C349.827 225.036 349.631 224.56 349.631 223.998ZM379.075 236.376V238.39H360.728V236.376H379.075ZM368.052 225.683H370.066V266.515C370.066 268.834 370.334 270.592 370.872 271.789C371.433 272.96 372.166 273.754 373.069 274.169C373.997 274.56 374.985 274.755 376.035 274.755C376.792 274.755 377.463 274.73 378.049 274.682C378.635 274.608 379.27 274.523 379.954 274.425L380.283 276.293C379.746 276.464 379.05 276.574 378.196 276.623C377.341 276.696 376.658 276.732 376.145 276.732C374.46 276.732 373.008 276.439 371.787 275.854C370.591 275.243 369.663 274.193 369.004 272.704C368.369 271.215 368.052 269.152 368.052 266.515V225.683Z" fill="white"/>
<defs>
<filter id="filter0_d_2_28" x="84" y="154" width="342" height="202" filterUnits="userSpaceOnUse" color-interpolation-filters="sRGB">
<feFlood flood-opacity="0" result="BackgroundImageFix"/>
<feColorMatrix in="SourceAlpha" type="matrix" values="0 0 0 0 0 0 0 0 0 0 0 0 0 0 0 0 0 0 127 0" result="hardAlpha"/>
<feMorphology radius="1" operator="dilate" in="SourceAlpha" result="effect1_dropShadow_2_28"/>
<feOffset dx="5" dy="5"/>
<feGaussianBlur stdDeviation="5"/>
<feComposite in2="hardAlpha" operator="out"/>
<feColorMatrix type="matrix" values="0 0 0 0 0.254902 0 0 0 0 0.254902 0 0 0 0 0.254902 0 0 0 0.25 0"/>
<feBlend mode="normal" in2="BackgroundImageFix" result="effect1_dropShadow_2_28"/>
<feBlend mode="normal" in="SourceGraphic" in2="effect1_dropShadow_2_28" result="shape"/>
</filter>
<linearGradient id="paint0_linear_2_28" x1="90" y1="160" x2="410" y2="340" gradientUnits="userSpaceOnUse">
<stop offset="0.0260417" stop-color="#F0F0F0" stop-opacity="0.4"/>
<stop offset="1" stop-color="white" stop-opacity="0.1"/>
</linearGradient>
<radialGradient id="paint1_angular_2_28" cx="0" cy="0" r="1" gradientUnits="userSpaceOnUse" gradientTransform="translate(250 250) rotate(-150.642) scale(183.576 176.52)">
<stop offset="0.317708" stop-color="#FFEE56"/>
<stop offset="0.535809" stop-color="#A7DE7B"/>
<stop offset="0.834234" stop-color="#6574FF"/>
<stop offset="0.972952" stop-color="#FF6565"/>
</radialGradient>
</defs>
</svg>
